<?xml version="1.0" encoding="UTF-8" standalone="no"?>
<!-- Created with Digital by H.Neemann -->
<!-- created: Tue Sep 02 00:03:33 IST 2025 -->

<svg
   xmlns:svg="http://www.w3.org/2000/svg"
   xmlns="http://www.w3.org/2000/svg"
   width="100.2mm"
   height="168.9mm"
   viewBox="659 498 668 1126">
<g stroke-linecap="square">
<path d="M 760,1120 L 770,1120 L 780,1120" stroke="#000000" stroke-width="2.8" fill="none"/>
<path d="M 780,1140 L 770,1140" stroke="#000000" stroke-width="2.8" fill="none"/>
<path d="M 1240,1020 L 1260,1040" stroke="#000000" stroke-width="2.8" fill="none"/>
<path d="M 740,1040 L 800,1020" stroke="#000000" stroke-width="2.8" fill="none"/>
<path d="M 840,960 L 880,960 L 880,660 L 980,660" stroke="#000000" stroke-width="2.8" fill="none"/>
<path d="M 1100,1540 L 1180,1540 L 1180,1080 L 1200,1080" stroke="#000000" stroke-width="2.8" fill="none"/>
<path d="M 1100,840 L 1140,840 L 1140,980 L 1200,980" stroke="#000000" stroke-width="2.8" fill="none"/>
<path d="M 840,1040 L 900,1040 L 900,1220 L 980,1220" stroke="#000000" stroke-width="2.8" fill="none"/>
<path d="M 840,980 L 900,980 L 900,800 L 980,800" stroke="#000000" stroke-width="2.8" fill="none"/>
<path d="M 1100,980 L 1120,980 L 1120,1000 L 1200,1000" stroke="#000000" stroke-width="2.8" fill="none"/>
<path d="M 740,920 L 960,920 L 960,880" stroke="#000000" stroke-width="2.8" fill="none"/>
<path d="M 740,1120 L 760,1120" stroke="#000000" stroke-width="2.8" fill="none"/>
<path d="M 1100,1120 L 1120,1120 L 1120,1020 L 1200,1020" stroke="#000000" stroke-width="2.8" fill="none"/>
<path d="M 780,1120 L 940,1120 L 980,1120" stroke="#000000" stroke-width="2.8" fill="none"/>
<path d="M 840,1060 L 880,1060 L 880,1360 L 980,1360" stroke="#000000" stroke-width="2.8" fill="none"/>
<path d="M 840,1000 L 920,1000 L 920,940 L 980,940" stroke="#000000" stroke-width="2.8" fill="none"/>
<path d="M 840,940 L 860,940 L 860,520 L 980,520" stroke="#000000" stroke-width="2.8" fill="none"/>
<path d="M 1100,1260 L 1140,1260 L 1140,1040 L 1200,1040" stroke="#000000" stroke-width="2.8" fill="none"/>
<path d="M 940,980 L 940,1120 L 940,1260 L 980,1260" stroke="#000000" stroke-width="2.8" fill="none"/>
<path d="M 960,1440 L 960,1580 L 980,1580" stroke="#000000" stroke-width="2.8" fill="none"/>
<path d="M 1100,560 L 1180,560 L 1180,940 L 1200,940" stroke="#000000" stroke-width="2.8" fill="none"/>
<path d="M 960,740 L 960,880 L 980,880" stroke="#000000" stroke-width="2.8" fill="none"/>
<path d="M 780,1140 L 820,1140 L 1220,1140 L 1220,1100" stroke="#000000" stroke-width="2.8" fill="none"/>
<path d="M 840,1080 L 860,1080 L 860,1500 L 980,1500" stroke="#000000" stroke-width="2.8" fill="none"/>
<path d="M 1100,1400 L 1160,1400 L 1160,1060 L 1200,1060" stroke="#000000" stroke-width="2.8" fill="none"/>
<path d="M 840,1020 L 920,1020 L 920,1080 L 980,1080" stroke="#000000" stroke-width="2.8" fill="none"/>
<path d="M 1100,700 L 1160,700 L 1160,960 L 1200,960" stroke="#000000" stroke-width="2.8" fill="none"/>
<path d="M 980,600 L 960,600 L 960,740 L 980,740" stroke="#000000" stroke-width="2.8" fill="none"/>
<path d="M 980,1160 L 960,1160 L 960,1020 L 980,1020" stroke="#000000" stroke-width="2.8" fill="none"/>
<path d="M 980,1300 L 960,1300 L 960,1440 L 980,1440" stroke="#000000" stroke-width="2.8" fill="none"/>
<path d="M 960,1160 L 960,1300" stroke="#000000" stroke-width="2.8" fill="none"/>
<path d="M 960,920 L 960,1020" stroke="#000000" stroke-width="2.8" fill="none"/>
<path d="M 820,1100 L 820,1140" stroke="#000000" stroke-width="2.8" fill="none"/>
<path d="M 980,560 L 940,560 L 940,700 L 980,700" stroke="#000000" stroke-width="2.8" fill="none"/>
<path d="M 980,840 L 940,840 L 940,980 L 980,980" stroke="#000000" stroke-width="2.8" fill="none"/>
<path d="M 980,1540 L 940,1540 L 940,1400 L 980,1400" stroke="#000000" stroke-width="2.8" fill="none"/>
<path d="M 940,700 L 940,840" stroke="#000000" stroke-width="2.8" fill="none"/>
<path d="M 940,1260 L 940,1400" stroke="#000000" stroke-width="2.8" fill="none"/>
<g>
<circle cx="940.0" cy="840.0" r="4.0" stroke="#000000" stroke-width="2.8" fill="#000000" />
<circle cx="960.0" cy="1160.0" r="4.0" stroke="#000000" stroke-width="2.8" fill="#000000" />
<circle cx="940.0" cy="980.0" r="4.0" stroke="#000000" stroke-width="2.8" fill="#000000" />
<circle cx="960.0" cy="1300.0" r="4.0" stroke="#000000" stroke-width="2.8" fill="#000000" />
<circle cx="960.0" cy="920.0" r="4.0" stroke="#000000" stroke-width="2.8" fill="#000000" />
<circle cx="940.0" cy="1120.0" r="4.0" stroke="#000000" stroke-width="2.8" fill="#000000" />
<circle cx="960.0" cy="1440.0" r="4.0" stroke="#000000" stroke-width="2.8" fill="#000000" />
<circle cx="960.0" cy="740.0" r="4.0" stroke="#000000" stroke-width="2.8" fill="#000000" />
<circle cx="940.0" cy="1260.0" r="4.0" stroke="#000000" stroke-width="2.8" fill="#000000" />
<circle cx="960.0" cy="880.0" r="4.0" stroke="#000000" stroke-width="2.8" fill="#000000" />
<circle cx="820.0" cy="1140.0" r="4.0" stroke="#000000" stroke-width="2.8" fill="#000000" />
<circle cx="940.0" cy="1400.0" r="4.0" stroke="#000000" stroke-width="2.8" fill="#000000" />
<circle cx="960.0" cy="1020.0" r="4.0" stroke="#000000" stroke-width="2.8" fill="#000000" />
<circle cx="940.0" cy="700.0" r="4.0" stroke="#000000" stroke-width="2.8" fill="#000000" />
</g>
<g>
<path d="M 980,500 L 1100,500 L 1100,620 L 980,620 Z" stroke="#ffffb4" stroke-width="0.0" fill="#ffffb4" fill-opacity="0.7843137254901961"/>
<path d="M 980,500 L 1100,500 L 1100,620 L 980,620 Z" stroke="#000000" stroke-width="2.8" fill="none"/>
<text text-anchor="middle" x="1040.0" y="637.5" fill="#000000" style="font-size:18px">64RAM_16bit</text>
<text text-anchor="start" x="984.0" y="526.75" fill="#000000" style="font-size:18px">LOAD</text>
<text text-anchor="start" x="984.0" y="566.75" fill="#000000" style="font-size:18px">SEL</text>
<text text-anchor="start" x="984.0" y="606.75" fill="#000000" style="font-size:18px">IN</text>
<text text-anchor="end" x="1096.0" y="566.75" fill="#000000" style="font-size:18px">OUT</text>
<circle cx="980.0" cy="600.0" r="2.0" stroke="#000000" stroke-width="2.8" fill="#000000" />
<circle cx="980.0" cy="520.0" r="2.0" stroke="#000000" stroke-width="2.8" fill="#000000" />
<circle cx="980.0" cy="560.0" r="2.0" stroke="#000000" stroke-width="2.8" fill="#000000" />
<circle cx="1100.0" cy="560.0" r="2.0" stroke="#000000" stroke-width="2.8" fill="#000000" />
</g>
<g>
<path d="M 980,640 L 1100,640 L 1100,760 L 980,760 Z" stroke="#ffffb4" stroke-width="0.0" fill="#ffffb4" fill-opacity="0.7843137254901961"/>
<path d="M 980,640 L 1100,640 L 1100,760 L 980,760 Z" stroke="#000000" stroke-width="2.8" fill="none"/>
<text text-anchor="middle" x="1040.0" y="777.5" fill="#000000" style="font-size:18px">64RAM_16bit</text>
<text text-anchor="start" x="984.0" y="666.75" fill="#000000" style="font-size:18px">LOAD</text>
<text text-anchor="start" x="984.0" y="706.75" fill="#000000" style="font-size:18px">SEL</text>
<text text-anchor="start" x="984.0" y="746.75" fill="#000000" style="font-size:18px">IN</text>
<text text-anchor="end" x="1096.0" y="706.75" fill="#000000" style="font-size:18px">OUT</text>
<circle cx="980.0" cy="740.0" r="2.0" stroke="#000000" stroke-width="2.8" fill="#000000" />
<circle cx="980.0" cy="660.0" r="2.0" stroke="#000000" stroke-width="2.8" fill="#000000" />
<circle cx="980.0" cy="700.0" r="2.0" stroke="#000000" stroke-width="2.8" fill="#000000" />
<circle cx="1100.0" cy="700.0" r="2.0" stroke="#000000" stroke-width="2.8" fill="#000000" />
</g>
<g>
<circle cx="736.0" cy="920.0" r="4.0" stroke="#000000" stroke-width="2.8" fill="none" />
<text text-anchor="end" x="726.0" y="929.0" fill="#000000" style="font-size:24px"><tspan style="font-style:italic;">IN</tspan></text>
<circle cx="740.0" cy="920.0" r="2.0" stroke="#000000" stroke-width="2.8" fill="#000000" />
</g>
<g>
<path d="M 1201,936 L 1239,945 L 1239,1095 L 1201,1104 Z" stroke="#000000" stroke-width="2.8" fill="none"/>
<text text-anchor="start" x="1203.0" y="955.5" fill="#000000" style="font-size:18px">0</text>
<circle cx="1220.0" cy="1100.0" r="2.0" stroke="#000000" stroke-width="2.8" fill="#000000" />
<circle cx="1200.0" cy="940.0" r="2.0" stroke="#000000" stroke-width="2.8" fill="#000000" />
<circle cx="1200.0" cy="960.0" r="2.0" stroke="#000000" stroke-width="2.8" fill="#000000" />
<circle cx="1200.0" cy="980.0" r="2.0" stroke="#000000" stroke-width="2.8" fill="#000000" />
<circle cx="1200.0" cy="1000.0" r="2.0" stroke="#000000" stroke-width="2.8" fill="#000000" />
<circle cx="1200.0" cy="1020.0" r="2.0" stroke="#000000" stroke-width="2.8" fill="#000000" />
<circle cx="1200.0" cy="1040.0" r="2.0" stroke="#000000" stroke-width="2.8" fill="#000000" />
<circle cx="1200.0" cy="1060.0" r="2.0" stroke="#000000" stroke-width="2.8" fill="#000000" />
<circle cx="1200.0" cy="1080.0" r="2.0" stroke="#000000" stroke-width="2.8" fill="#000000" />
<circle cx="1240.0" cy="1020.0" r="2.0" stroke="#000000" stroke-width="2.8" fill="#000000" />
</g>
<g>
<circle cx="1264.0" cy="1040.0" r="4.0" stroke="#000000" stroke-width="2.8" fill="none" />
<text text-anchor="start" x="1274.0" y="1049.0" fill="#000000" style="font-size:24px"><tspan style="font-style:italic;">OUT</tspan></text>
<circle cx="1260.0" cy="1040.0" r="2.0" stroke="#000000" stroke-width="2.8" fill="#000000" />
</g>
<g>
<path d="M 801,945 L 839,936 L 839,1104 L 801,1095 Z" stroke="#000000" stroke-width="2.8" fill="none"/>
<text text-anchor="end" x="837.0" y="955.5" fill="#000000" style="font-size:18px">0</text>
<circle cx="820.0" cy="1100.0" r="2.0" stroke="#000000" stroke-width="2.8" fill="#000000" />
<circle cx="840.0" cy="940.0" r="2.0" stroke="#000000" stroke-width="2.8" fill="#000000" />
<circle cx="840.0" cy="960.0" r="2.0" stroke="#000000" stroke-width="2.8" fill="#000000" />
<circle cx="840.0" cy="980.0" r="2.0" stroke="#000000" stroke-width="2.8" fill="#000000" />
<circle cx="840.0" cy="1000.0" r="2.0" stroke="#000000" stroke-width="2.8" fill="#000000" />
<circle cx="840.0" cy="1020.0" r="2.0" stroke="#000000" stroke-width="2.8" fill="#000000" />
<circle cx="840.0" cy="1040.0" r="2.0" stroke="#000000" stroke-width="2.8" fill="#000000" />
<circle cx="840.0" cy="1060.0" r="2.0" stroke="#000000" stroke-width="2.8" fill="#000000" />
<circle cx="840.0" cy="1080.0" r="2.0" stroke="#000000" stroke-width="2.8" fill="#000000" />
<circle cx="800.0" cy="1020.0" r="2.0" stroke="#000000" stroke-width="2.8" fill="#000000" />
</g>
<g>
<circle cx="736.0" cy="1040.0" r="4.0" stroke="#000000" stroke-width="2.8" fill="none" />
<text text-anchor="end" x="726.0" y="1049.0" fill="#000000" style="font-size:24px"><tspan style="font-style:italic;">LOAD</tspan></text>
<circle cx="740.0" cy="1040.0" r="2.0" stroke="#000000" stroke-width="2.8" fill="#000000" />
</g>
<g>
<circle cx="736.0" cy="1120.0" r="4.0" stroke="#000000" stroke-width="2.8" fill="none" />
<text text-anchor="end" x="726.0" y="1129.0" fill="#000000" style="font-size:24px"><tspan style="font-style:italic;">SEL</tspan></text>
<circle cx="740.0" cy="1120.0" r="2.0" stroke="#000000" stroke-width="2.8" fill="#000000" />
</g>
<g>
<text text-anchor="end" x="758.0" y="1117.0" fill="#000000" style="font-size:12px">0-8</text>
<text text-anchor="start" x="782.0" y="1117.0" fill="#000000" style="font-size:12px">0-5</text>
<text text-anchor="start" x="782.0" y="1137.0" fill="#000000" style="font-size:12px">6-8</text>
<path d="M 768,1118 L 772,1118 L 772,1142 L 768,1142 Z" stroke="#000000" stroke-width="2.8" fill="#000000" fill-opacity="1.0"/>
<circle cx="760.0" cy="1120.0" r="2.0" stroke="#000000" stroke-width="2.8" fill="#000000" />
<circle cx="780.0" cy="1120.0" r="2.0" stroke="#000000" stroke-width="2.8" fill="#000000" />
<circle cx="780.0" cy="1140.0" r="2.0" stroke="#000000" stroke-width="2.8" fill="#000000" />
</g>
<g>
<path d="M 980,780 L 1100,780 L 1100,900 L 980,900 Z" stroke="#ffffb4" stroke-width="0.0" fill="#ffffb4" fill-opacity="0.7843137254901961"/>
<path d="M 980,780 L 1100,780 L 1100,900 L 980,900 Z" stroke="#000000" stroke-width="2.8" fill="none"/>
<text text-anchor="middle" x="1040.0" y="917.5" fill="#000000" style="font-size:18px">64RAM_16bit</text>
<text text-anchor="start" x="984.0" y="806.75" fill="#000000" style="font-size:18px">LOAD</text>
<text text-anchor="start" x="984.0" y="846.75" fill="#000000" style="font-size:18px">SEL</text>
<text text-anchor="start" x="984.0" y="886.75" fill="#000000" style="font-size:18px">IN</text>
<text text-anchor="end" x="1096.0" y="846.75" fill="#000000" style="font-size:18px">OUT</text>
<circle cx="980.0" cy="880.0" r="2.0" stroke="#000000" stroke-width="2.8" fill="#000000" />
<circle cx="980.0" cy="800.0" r="2.0" stroke="#000000" stroke-width="2.8" fill="#000000" />
<circle cx="980.0" cy="840.0" r="2.0" stroke="#000000" stroke-width="2.8" fill="#000000" />
<circle cx="1100.0" cy="840.0" r="2.0" stroke="#000000" stroke-width="2.8" fill="#000000" />
</g>
<g>
<path d="M 980,920 L 1100,920 L 1100,1040 L 980,1040 Z" stroke="#ffffb4" stroke-width="0.0" fill="#ffffb4" fill-opacity="0.7843137254901961"/>
<path d="M 980,920 L 1100,920 L 1100,1040 L 980,1040 Z" stroke="#000000" stroke-width="2.8" fill="none"/>
<text text-anchor="middle" x="1040.0" y="1057.5" fill="#000000" style="font-size:18px">64RAM_16bit</text>
<text text-anchor="start" x="984.0" y="946.75" fill="#000000" style="font-size:18px">LOAD</text>
<text text-anchor="start" x="984.0" y="986.75" fill="#000000" style="font-size:18px">SEL</text>
<text text-anchor="start" x="984.0" y="1026.75" fill="#000000" style="font-size:18px">IN</text>
<text text-anchor="end" x="1096.0" y="986.75" fill="#000000" style="font-size:18px">OUT</text>
<circle cx="980.0" cy="1020.0" r="2.0" stroke="#000000" stroke-width="2.8" fill="#000000" />
<circle cx="980.0" cy="940.0" r="2.0" stroke="#000000" stroke-width="2.8" fill="#000000" />
<circle cx="980.0" cy="980.0" r="2.0" stroke="#000000" stroke-width="2.8" fill="#000000" />
<circle cx="1100.0" cy="980.0" r="2.0" stroke="#000000" stroke-width="2.8" fill="#000000" />
</g>
<g>
<path d="M 980,1060 L 1100,1060 L 1100,1180 L 980,1180 Z" stroke="#ffffb4" stroke-width="0.0" fill="#ffffb4" fill-opacity="0.7843137254901961"/>
<path d="M 980,1060 L 1100,1060 L 1100,1180 L 980,1180 Z" stroke="#000000" stroke-width="2.8" fill="none"/>
<text text-anchor="middle" x="1040.0" y="1197.5" fill="#000000" style="font-size:18px">64RAM_16bit</text>
<text text-anchor="start" x="984.0" y="1086.75" fill="#000000" style="font-size:18px">LOAD</text>
<text text-anchor="start" x="984.0" y="1126.75" fill="#000000" style="font-size:18px">SEL</text>
<text text-anchor="start" x="984.0" y="1166.75" fill="#000000" style="font-size:18px">IN</text>
<text text-anchor="end" x="1096.0" y="1126.75" fill="#000000" style="font-size:18px">OUT</text>
<circle cx="980.0" cy="1160.0" r="2.0" stroke="#000000" stroke-width="2.8" fill="#000000" />
<circle cx="980.0" cy="1080.0" r="2.0" stroke="#000000" stroke-width="2.8" fill="#000000" />
<circle cx="980.0" cy="1120.0" r="2.0" stroke="#000000" stroke-width="2.8" fill="#000000" />
<circle cx="1100.0" cy="1120.0" r="2.0" stroke="#000000" stroke-width="2.8" fill="#000000" />
</g>
<g>
<path d="M 980,1200 L 1100,1200 L 1100,1320 L 980,1320 Z" stroke="#ffffb4" stroke-width="0.0" fill="#ffffb4" fill-opacity="0.7843137254901961"/>
<path d="M 980,1200 L 1100,1200 L 1100,1320 L 980,1320 Z" stroke="#000000" stroke-width="2.8" fill="none"/>
<text text-anchor="middle" x="1040.0" y="1337.5" fill="#000000" style="font-size:18px">64RAM_16bit</text>
<text text-anchor="start" x="984.0" y="1226.75" fill="#000000" style="font-size:18px">LOAD</text>
<text text-anchor="start" x="984.0" y="1266.75" fill="#000000" style="font-size:18px">SEL</text>
<text text-anchor="start" x="984.0" y="1306.75" fill="#000000" style="font-size:18px">IN</text>
<text text-anchor="end" x="1096.0" y="1266.75" fill="#000000" style="font-size:18px">OUT</text>
<circle cx="980.0" cy="1300.0" r="2.0" stroke="#000000" stroke-width="2.8" fill="#000000" />
<circle cx="980.0" cy="1220.0" r="2.0" stroke="#000000" stroke-width="2.8" fill="#000000" />
<circle cx="980.0" cy="1260.0" r="2.0" stroke="#000000" stroke-width="2.8" fill="#000000" />
<circle cx="1100.0" cy="1260.0" r="2.0" stroke="#000000" stroke-width="2.8" fill="#000000" />
</g>
<g>
<path d="M 980,1340 L 1100,1340 L 1100,1460 L 980,1460 Z" stroke="#ffffb4" stroke-width="0.0" fill="#ffffb4" fill-opacity="0.7843137254901961"/>
<path d="M 980,1340 L 1100,1340 L 1100,1460 L 980,1460 Z" stroke="#000000" stroke-width="2.8" fill="none"/>
<text text-anchor="middle" x="1040.0" y="1477.5" fill="#000000" style="font-size:18px">64RAM_16bit</text>
<text text-anchor="start" x="984.0" y="1366.75" fill="#000000" style="font-size:18px">LOAD</text>
<text text-anchor="start" x="984.0" y="1406.75" fill="#000000" style="font-size:18px">SEL</text>
<text text-anchor="start" x="984.0" y="1446.75" fill="#000000" style="font-size:18px">IN</text>
<text text-anchor="end" x="1096.0" y="1406.75" fill="#000000" style="font-size:18px">OUT</text>
<circle cx="980.0" cy="1440.0" r="2.0" stroke="#000000" stroke-width="2.8" fill="#000000" />
<circle cx="980.0" cy="1360.0" r="2.0" stroke="#000000" stroke-width="2.8" fill="#000000" />
<circle cx="980.0" cy="1400.0" r="2.0" stroke="#000000" stroke-width="2.8" fill="#000000" />
<circle cx="1100.0" cy="1400.0" r="2.0" stroke="#000000" stroke-width="2.8" fill="#000000" />
</g>
<g>
<path d="M 980,1480 L 1100,1480 L 1100,1600 L 980,1600 Z" stroke="#ffffb4" stroke-width="0.0" fill="#ffffb4" fill-opacity="0.7843137254901961"/>
<path d="M 980,1480 L 1100,1480 L 1100,1600 L 980,1600 Z" stroke="#000000" stroke-width="2.8" fill="none"/>
<text text-anchor="middle" x="1040.0" y="1617.5" fill="#000000" style="font-size:18px">64RAM_16bit</text>
<text text-anchor="start" x="984.0" y="1506.75" fill="#000000" style="font-size:18px">LOAD</text>
<text text-anchor="start" x="984.0" y="1546.75" fill="#000000" style="font-size:18px">SEL</text>
<text text-anchor="start" x="984.0" y="1586.75" fill="#000000" style="font-size:18px">IN</text>
<text text-anchor="end" x="1096.0" y="1546.75" fill="#000000" style="font-size:18px">OUT</text>
<circle cx="980.0" cy="1580.0" r="2.0" stroke="#000000" stroke-width="2.8" fill="#000000" />
<circle cx="980.0" cy="1500.0" r="2.0" stroke="#000000" stroke-width="2.8" fill="#000000" />
<circle cx="980.0" cy="1540.0" r="2.0" stroke="#000000" stroke-width="2.8" fill="#000000" />
<circle cx="1100.0" cy="1540.0" r="2.0" stroke="#000000" stroke-width="2.8" fill="#000000" />
</g>
</g>
</svg>