<?xml version="1.0" encoding="UTF-8" standalone="no"?>
<!-- Created with Digital by H.Neemann -->
<!-- created: Tue Sep 02 00:04:35 IST 2025 -->

<svg
   xmlns:svg="http://www.w3.org/2000/svg"
   xmlns="http://www.w3.org/2000/svg"
   width="49.65mm"
   height="24.9mm"
   viewBox="228 226 331 166">
<g stroke-linecap="square">
<path d="M 420,260 L 460,280" stroke="#000000" stroke-width="2.8" fill="none"/>
<path d="M 260,240 L 320,240 L 340,240 L 354,240" stroke="#000000" stroke-width="2.8" fill="none"/>
<path d="M 260,320 L 280,320 L 280,280 L 340,280 L 354,280" stroke="#000000" stroke-width="2.8" fill="none"/>
<path d="M 320,240 L 320,340 L 340,340" stroke="#000000" stroke-width="2.8" fill="none"/>
<path d="M 420,360 L 460,360" stroke="#000000" stroke-width="2.8" fill="none"/>
<path d="M 280,320 L 280,380 L 340,380" stroke="#000000" stroke-width="2.8" fill="none"/>
<g>
<circle cx="320.0" cy="240.0" r="4.0" stroke="#000000" stroke-width="2.8" fill="#000000" />
<circle cx="280.0" cy="320.0" r="4.0" stroke="#000000" stroke-width="2.8" fill="#000000" />
</g>
<g>
<path d="M 370,290 L 350,290 C 360,274 360,246 350,230 L 370,230 C 390,230 410,240 420,260 C 410,280 390,290 370,290 Z" stroke="#000000" stroke-width="2.8" fill="none"/>
<path d="M 340,290 C 350,280 350,240 340,230" stroke="#000000" stroke-width="2.8" fill="none"/>
<circle cx="340.0" cy="240.0" r="2.0" stroke="#000000" stroke-width="2.8" fill="#000000" />
<circle cx="340.0" cy="280.0" r="2.0" stroke="#000000" stroke-width="2.8" fill="#000000" />
<circle cx="420.0" cy="260.0" r="2.0" stroke="#000000" stroke-width="2.8" fill="#000000" />
</g>
<g>
<path d="M 390,390 L 341,390 L 341,330 L 390,330 C 400,330 420,340 419,360 C 419,380 400,390 390,390 Z" stroke="#000000" stroke-width="2.8" fill="none"/>
<circle cx="340.0" cy="340.0" r="2.0" stroke="#000000" stroke-width="2.8" fill="#000000" />
<circle cx="340.0" cy="380.0" r="2.0" stroke="#000000" stroke-width="2.8" fill="#000000" />
<circle cx="420.0" cy="360.0" r="2.0" stroke="#000000" stroke-width="2.8" fill="#000000" />
</g>
<g>
<circle cx="256.0" cy="240.0" r="4.0" stroke="#000000" stroke-width="2.8" fill="none" />
<text text-anchor="end" x="246.0" y="249.0" fill="#000000" style="font-size:24px"><tspan style="font-style:italic;">A</tspan></text>
<circle cx="260.0" cy="240.0" r="2.0" stroke="#000000" stroke-width="2.8" fill="#000000" />
</g>
<g>
<circle cx="256.0" cy="320.0" r="4.0" stroke="#000000" stroke-width="2.8" fill="none" />
<text text-anchor="end" x="246.0" y="329.0" fill="#000000" style="font-size:24px"><tspan style="font-style:italic;">B</tspan></text>
<circle cx="260.0" cy="320.0" r="2.0" stroke="#000000" stroke-width="2.8" fill="#000000" />
</g>
<g>
<circle cx="464.0" cy="280.0" r="4.0" stroke="#000000" stroke-width="2.8" fill="none" />
<text text-anchor="start" x="474.0" y="289.0" fill="#000000" style="font-size:24px"><tspan style="font-style:italic;">SUM</tspan></text>
<circle cx="460.0" cy="280.0" r="2.0" stroke="#000000" stroke-width="2.8" fill="#000000" />
</g>
<g>
<circle cx="464.0" cy="360.0" r="4.0" stroke="#000000" stroke-width="2.8" fill="none" />
<text text-anchor="start" x="474.0" y="369.0" fill="#000000" style="font-size:24px"><tspan style="font-style:italic;">CARRY</tspan></text>
<circle cx="460.0" cy="360.0" r="2.0" stroke="#000000" stroke-width="2.8" fill="#000000" />
</g>
</g>
</svg>